<svg width="200" height="74" viewBox="0 0 355 74" fill="none" xmlns="http://www.w3.org/2000/svg">
<g clip-path="url(#clip0_315_2361)">
<path d="M85.5286 72.9623C81.8689 71.5867 77.9238 67.9269 76.1329 56.6881C74.316 45.2935 72.7587 29.2787 69.151 17.9101C67.6196 13.0823 65.7249 9.08512 63.2852 6.64528C70.7083 0.571619 76.8856 3.55654 77.0673 3.6344C82.3102 7.89115 88.0462 17.0016 93.2113 35.0669C105.929 79.5551 88.9546 74.2342 85.5286 72.9623Z" fill="url(#paint0_linear_315_2361)"/>
<path d="M77.0932 3.66003C76.1069 4.07533 75.2504 4.72422 74.4458 5.58076C72.006 8.17634 70.319 12.5888 69.1769 17.9357C66.6853 29.4082 66.5295 45.1893 66.0104 56.2465C65.5173 67.1998 62.1431 71.0932 58.795 72.8063C58.3797 73.0139 57.6789 73.2995 56.7705 73.5331C50.9046 75.1164 37.1485 74.6492 47.3488 37.4285C52.1764 19.8045 58.0682 10.9536 63.3111 6.64495C70.7342 0.571294 76.8856 3.55621 77.0932 3.66003Z" fill="url(#paint1_linear_315_2361)"/>
<path d="M74.4459 5.55469C72.0061 8.15027 70.319 12.5628 69.177 17.9097C66.6853 29.3821 66.5296 45.1632 66.0105 56.2204C65.5173 67.1738 62.1432 71.0671 58.795 72.7802C58.3797 72.9879 57.6789 73.2734 56.7705 73.507C52.2024 70.4961 49.1917 61.5933 55.5766 38.285C60.4042 20.661 66.296 11.81 71.5389 7.50137C72.5252 6.74865 73.5115 6.0738 74.4459 5.55469Z" fill="url(#paint2_linear_315_2361)"/>
<path d="M48.6984 13.0301C48.6984 13.0301 37.408 1.0385 29.6474 12.6148C21.8869 24.1911 25.4946 39.3493 27.3634 45.6825C27.3634 45.6825 36.0324 67.6411 23.0808 72.1834C17.8379 74.0262 13.0882 73.4292 9.29874 70.9115C3.77033 67.2518 0.318317 59.465 0.500002 49.3163C0.733597 37.766 5.63909 17.754 15.9951 6.33348C20.1479 1.76526 25.7542 -0.233335 31.2307 0.0262232C38.4981 0.363649 45.48 4.69827 48.4648 12.3293C48.5167 12.5369 48.6205 12.7705 48.6984 13.0301Z" fill="url(#paint3_linear_315_2361)"/>
<path opacity="0.9" d="M15.1386 42.5937C17.6043 59.5948 13.3218 67.3815 9.29874 70.9375C3.77033 67.2517 0.318317 59.465 0.500002 49.3163C0.733597 37.766 5.63909 17.754 15.9951 6.33348C20.1479 1.76526 25.7542 -0.233335 31.2307 0.0262232C16.7478 6.09988 12.1538 21.907 15.1386 42.5937Z" fill="#DEDEDF"/>
<path d="M133.286 54.7415C132.17 54.7415 131.235 54.3262 130.483 53.4956C129.73 52.665 129.444 51.6787 129.6 50.5626L133.13 23.7762C133.286 22.5563 133.805 21.57 134.635 20.8173C135.466 20.0646 136.478 19.7012 137.646 19.7012C140.034 19.7012 141.591 20.7394 142.318 22.7899L148.002 39.1421C148.288 39.6871 148.547 39.9727 148.833 39.9727C149.222 39.9727 149.508 39.6871 149.663 39.1421L155.348 22.7899C156.074 20.7394 157.606 19.7012 159.942 19.7012C161.213 19.7012 162.252 20.0646 163.082 20.8173C163.887 21.57 164.38 22.5563 164.536 23.7762L168.039 50.5626C168.195 51.6787 167.91 52.6391 167.157 53.4956C166.404 54.3522 165.47 54.7415 164.354 54.7415C163.342 54.7415 162.511 54.43 161.81 53.7811C161.11 53.1322 160.72 52.3276 160.59 51.3153L159.345 33.873C159.293 33.1982 159.059 32.8608 158.67 32.8608C158.28 32.8608 157.995 33.1463 157.839 33.6914L153.012 47.2922C152.233 49.3427 150.831 50.3809 148.833 50.3809C148.054 50.3809 147.301 50.0954 146.549 49.5503C145.796 49.0053 145.199 48.2785 144.758 47.3701L139.878 33.873C139.723 33.3799 139.437 33.1203 139.048 33.1203C138.71 33.1203 138.503 33.4577 138.373 34.1326L137.049 51.3153C136.997 52.3276 136.608 53.1322 135.881 53.7811C135.155 54.4041 134.298 54.7415 133.286 54.7415Z" fill="#C0C0C1"/>
<path d="M191.788 54.7417C190.724 54.7417 189.842 54.4042 189.115 53.7294C188.388 53.0545 188.025 52.2239 188.025 51.2376V23.2573C188.025 22.1931 188.388 21.3365 189.115 20.6617C189.842 19.9868 190.724 19.6494 191.788 19.6494C192.904 19.6494 193.813 19.9868 194.488 20.6617C195.188 21.3365 195.526 22.1931 195.526 23.2573V51.2117C195.526 52.2759 195.188 53.1064 194.488 53.7553C193.813 54.4042 192.904 54.7417 191.788 54.7417Z" fill="#C0C0C1"/>
<path d="M232.771 54.7413C229.501 54.7413 226.516 53.9627 223.843 52.4053C221.169 50.848 219.041 48.7196 217.484 46.0462C215.926 43.3727 215.148 40.3359 215.148 36.9616C215.148 33.5614 215.9 30.5505 217.432 27.903C218.963 25.2556 221.091 23.1531 223.817 21.5958C226.542 20.0384 229.631 19.2598 233.083 19.2598C235.522 19.2598 237.729 19.5712 239.727 20.1682C241.7 20.7912 243.516 21.7515 245.204 23.1012C246.086 23.828 246.527 24.7624 246.527 25.9304C246.527 26.8648 246.19 27.6954 245.515 28.3443C244.84 29.0191 244.036 29.3566 243.101 29.3566C242.478 29.3566 241.803 29.097 241.025 28.6039C239.805 27.8252 238.559 27.2022 237.261 26.735C235.99 26.2678 234.614 26.0342 233.16 26.0342C230.098 26.0342 227.58 27.0465 225.608 29.0711C223.635 31.0956 222.649 33.7431 222.649 36.9616C222.649 40.3099 223.583 42.9574 225.478 44.982C227.372 46.9806 229.786 47.9928 232.745 47.9928C235.47 47.9928 237.703 47.4478 239.468 46.3576C241.232 45.2675 242.089 43.8659 242.089 42.1528C242.089 41.7115 241.881 41.4779 241.492 41.4779H235.912C234.848 41.4779 234.017 41.1665 233.368 40.5695C232.719 39.9465 232.408 39.1419 232.408 38.1556C232.408 37.2212 232.719 36.4425 233.368 35.8196C234.017 35.1966 234.848 34.9111 235.912 34.9111H245.1C246.605 34.9111 247.695 35.2485 248.344 35.9493C249.019 36.6502 249.356 37.7922 249.356 39.4015C249.356 44.0735 247.851 47.8111 244.814 50.5884C241.778 53.3397 237.78 54.7413 232.771 54.7413Z" fill="#C0C0C1"/>
<path d="M284.759 54.7418C281.489 54.7418 278.504 53.9371 275.882 52.3538C273.235 50.7705 271.159 48.6162 269.627 45.8908C268.096 43.1655 267.343 40.1546 267.343 36.8842C267.343 33.484 268.096 30.4731 269.627 27.8256C271.159 25.1781 273.235 23.1016 275.857 21.5702C278.478 20.0388 281.437 19.2861 284.785 19.2861C288.133 19.2861 291.092 20.0388 293.662 21.5702C296.257 23.1016 298.282 25.1781 299.761 27.8256C301.24 30.4731 301.967 33.484 301.967 36.8842C301.967 40.2325 301.215 43.2433 299.709 45.9427C298.204 48.6421 296.153 50.7705 293.584 52.3798C290.962 53.9371 288.029 54.7418 284.759 54.7418ZM284.759 48.0452C287.588 48.0452 289.924 46.981 291.715 44.8786C293.532 42.7761 294.414 40.1027 294.414 36.8582C294.414 33.6397 293.506 30.9922 291.715 28.9417C289.898 26.8912 287.588 25.853 284.759 25.853C281.878 25.853 279.49 26.8912 277.621 28.9417C275.753 30.9922 274.818 33.6397 274.818 36.8582C274.818 40.0767 275.753 42.7502 277.621 44.8786C279.464 47.0069 281.852 48.0452 284.759 48.0452Z" fill="#C0C0C1"/>
<path d="M337.318 54.7418C334.048 54.7418 331.063 53.9371 328.441 52.3538C325.794 50.7705 323.717 48.6162 322.186 45.8908C320.655 43.1655 319.902 40.1546 319.902 36.8842C319.902 33.484 320.655 30.4731 322.186 27.8256C323.717 25.1781 325.794 23.1016 328.415 21.5702C331.037 20.0388 333.996 19.2861 337.344 19.2861C340.692 19.2861 343.651 20.0388 346.22 21.5702C348.816 23.1016 350.84 25.1781 352.32 27.8256C353.799 30.4731 354.526 33.484 354.526 36.8842C354.526 40.2325 353.773 43.2433 352.268 45.9427C350.763 48.6421 348.712 50.7705 346.143 52.3798C343.547 53.9371 340.588 54.7418 337.318 54.7418ZM337.318 48.0452C340.147 48.0452 342.483 46.981 344.274 44.8786C346.091 42.7761 346.973 40.1027 346.973 36.8582C346.973 33.6397 346.065 30.9922 344.274 28.9417C342.457 26.8912 340.147 25.853 337.318 25.853C334.437 25.853 332.049 26.8912 330.18 28.9417C328.312 30.9922 327.377 33.6397 327.377 36.8582C327.377 40.0767 328.312 42.7502 330.18 44.8786C332.049 47.0069 334.437 48.0452 337.318 48.0452Z" fill="#C0C0C1"/>
</g>
<defs>
<linearGradient id="paint0_linear_315_2361" x1="76.0135" y1="-3.6768" x2="85.9142" y2="74.161" gradientUnits="userSpaceOnUse">
<stop stop-color="#DCDCDD"/>
<stop offset="1" stop-color="#C2C2C3"/>
</linearGradient>
<linearGradient id="paint1_linear_315_2361" x1="60.6779" y1="3.35067" x2="59.9951" y2="69.1259" gradientUnits="userSpaceOnUse">
<stop stop-color="#BFBFBF"/>
<stop offset="1" stop-color="#DCDCDD"/>
</linearGradient>
<linearGradient id="paint2_linear_315_2361" x1="49.3052" y1="40.8676" x2="66.2037" y2="39.5022" gradientUnits="userSpaceOnUse">
<stop stop-color="#C0C0C0"/>
<stop offset="1" stop-color="#DCDCDD"/>
</linearGradient>
<linearGradient id="paint3_linear_315_2361" x1="-1.60736" y1="36.8339" x2="27.2964" y2="36.6063" gradientUnits="userSpaceOnUse">
<stop stop-color="#D7D7D8"/>
<stop offset="1" stop-color="#BDBDBD"/>
</linearGradient>
<clipPath id="clip0_315_2361">
<rect width="354" height="74" fill="white" transform="translate(0.5)"/>
</clipPath>
</defs>
</svg>
