<svg width="80" height="80" viewBox="0 0 80 80" fill="none" xmlns="http://www.w3.org/2000/svg">
<path opacity="0.93" d="M74.2295 11.2002V61.5947H78.7998V69.2998H1.2002V61.5947H5.77051V11.2002H74.2295ZM7.80762 61.5947H12.2256V64.1904H3.2373V66.8809H76.7627V64.1895L76.5625 64.1904C57.5238 64.2198 38.4849 64.1891 19.4463 64.1016C19.292 63.2945 19.2918 62.4887 19.4463 61.6816C36.9614 61.5942 54.4769 61.5654 71.9922 61.5947H72.1924V13.6191H7.80762V61.5947Z" fill="#2A8EFE" stroke="white" stroke-width="0.4"/>
<path opacity="0.943" d="M55.7959 16.4912V18.9102H12.3779V56.1367H67.6221V18.9102H63.0518V16.4912H69.6592V58.5566H10.3408V16.4912H55.7959Z" fill="#2A8EFE" stroke="white" stroke-width="0.4"/>
<path opacity="0.834" d="M60.5186 16.4912V18.9102H58.3291V16.4912H60.5186Z" fill="#2A8EFE" stroke="white" stroke-width="0.4"/>
<path opacity="0.886" d="M16.7959 21.7734V24.1924H14.7588V21.7734H16.7959Z" fill="#2A8EFE" stroke="white" stroke-width="0.4"/>
<path opacity="0.939" d="M58.0811 21.7656V50.792C52.9161 50.7644 47.7514 50.7939 42.5869 50.8809L42.5107 50.8818L42.4541 50.9336C41.6338 51.687 40.8125 52.4409 39.9922 53.1943C39.1069 52.4713 38.2401 51.7187 37.3936 50.9346L37.3379 50.8828L37.2607 50.8809L33.3369 50.8262C29.4803 50.7829 25.6235 50.7714 21.7666 50.792V21.7656C27.2541 21.7381 32.7415 21.7666 38.2285 21.8525C38.7078 22.4553 39.2282 22.9997 39.7939 23.4814L39.9297 23.5967L40.0605 23.4746C40.6616 22.914 41.2757 22.3738 41.9023 21.8535C47.295 21.7674 52.6879 21.7381 58.0811 21.7656ZM56.0439 24.1875L55.8447 24.1855C51.4756 24.1561 47.1068 24.1863 42.7383 24.2744L42.6631 24.2754L42.6074 24.3262C41.7103 25.1402 40.8149 25.9522 39.9209 26.7617C39.0446 26.0157 38.2052 25.2092 37.4053 24.3389L37.3477 24.2754L37.2617 24.2744L33.9473 24.2188C31.7374 24.1894 29.5274 24.1748 27.3174 24.1748L24.0029 24.1855L23.8037 24.1875V48.375L24.0049 48.374C28.7508 48.3448 33.4967 48.373 38.2422 48.46C38.7662 48.9764 39.31 49.4618 39.875 49.915L40.0039 50.0186L40.1299 49.9111C40.651 49.4665 41.1443 48.9821 41.6123 48.46C46.3555 48.3731 51.0991 48.3448 55.8428 48.374L56.0439 48.375V24.1875Z" fill="#2A8EFE" stroke="white" stroke-width="0.4"/>
<path opacity="0.886" d="M16.7959 27.0566V29.4756H14.7588V27.0566H16.7959Z" fill="#2A8EFE" stroke="white" stroke-width="0.4"/>
<path opacity="0.93" d="M35.2295 29.7031V32.1221H26.3369V29.7031H35.2295Z" fill="#2A8EFE" stroke="white" stroke-width="0.4"/>
<path opacity="0.935" d="M41.0186 29.7031V45.3379H38.9814V29.7031H41.0186Z" fill="#2A8EFE" stroke="white" stroke-width="0.4"/>
<path opacity="0.93" d="M53.5107 29.7031V32.1221H44.6182V29.7031H53.5107Z" fill="#2A8EFE" stroke="white" stroke-width="0.4"/>
<path opacity="0.93" d="M35.2295 34.9932V37.4121H26.3369V34.9932H35.2295Z" fill="#2A8EFE" stroke="white" stroke-width="0.4"/>
<path opacity="0.93" d="M53.5107 34.9932V37.4121H44.6182V34.9932H53.5107Z" fill="#2A8EFE" stroke="white" stroke-width="0.4"/>
<path opacity="0.93" d="M35.2295 40.4502V42.8691H26.3369V40.4502H35.2295Z" fill="#2A8EFE" stroke="white" stroke-width="0.4"/>
<path opacity="0.93" d="M53.5107 40.4502V42.8691H44.6182V40.4502H53.5107Z" fill="#2A8EFE" stroke="white" stroke-width="0.4"/>
<path opacity="0.837" d="M16.7961 61.5898V64.1943C16.1278 64.2243 15.4706 64.1739 14.8235 64.043C14.762 63.2266 14.7392 62.409 14.7551 61.5898H16.7961Z" fill="#2A8EFE" stroke="white" stroke-width="0.4"/>
</svg>
