<svg width="80" height="80" viewBox="0 0 80 80" fill="none" xmlns="http://www.w3.org/2000/svg">
<path d="M47.1752 25.9375H53.4061C53.7377 25.9375 54.0556 25.8058 54.29 25.5714C54.5244 25.337 54.6561 25.019 54.6561 24.6875C54.6561 24.356 54.5244 24.038 54.29 23.8036C54.0556 23.5692 53.7377 23.4375 53.4061 23.4375H47.1752C46.8437 23.4375 46.5257 23.5692 46.2913 23.8036C46.0569 24.038 45.9252 24.356 45.9252 24.6875C45.9252 25.019 46.0569 25.337 46.2913 25.5714C46.5257 25.8058 46.8437 25.9375 47.1752 25.9375ZM47.1752 33.5938H61.9302C62.2617 33.5938 62.5797 33.4621 62.8141 33.2276C63.0485 32.9932 63.1802 32.6753 63.1802 32.3438C63.1802 32.0122 63.0485 31.6943 62.8141 31.4599C62.5797 31.2254 62.2617 31.0938 61.9302 31.0938H47.1752C46.8437 31.0938 46.5257 31.2254 46.2913 31.4599C46.0569 31.6943 45.9252 32.0122 45.9252 32.3438C45.9252 32.6753 46.0569 32.9932 46.2913 33.2276C46.5257 33.4621 46.8437 33.5938 47.1752 33.5938ZM47.1752 41.25H61.9302C62.2617 41.25 62.5797 41.1183 62.8141 40.8839C63.0485 40.6495 63.1802 40.3315 63.1802 40C63.1802 39.6685 63.0485 39.3505 62.8141 39.1161C62.5797 38.8817 62.2617 38.75 61.9302 38.75H47.1752C46.8437 38.75 46.5257 38.8817 46.2913 39.1161C46.0569 39.3505 45.9252 39.6685 45.9252 40C45.9252 40.3315 46.0569 40.6495 46.2913 40.8839C46.5257 41.1183 46.8437 41.25 47.1752 41.25ZM47.1752 48.9062H61.9302C62.2617 48.9062 62.5797 48.7746 62.8141 48.5401C63.0485 48.3057 63.1802 47.9878 63.1802 47.6562C63.1802 47.3247 63.0485 47.0068 62.8141 46.7724C62.5797 46.5379 62.2617 46.4062 61.9302 46.4062H47.1752C46.8437 46.4062 46.5257 46.5379 46.2913 46.7724C46.0569 47.0068 45.9252 47.3247 45.9252 47.6562C45.9252 47.9878 46.0569 48.3057 46.2913 48.5401C46.5257 48.7746 46.8437 48.9062 47.1752 48.9062ZM18.0696 25.9375H24.3C24.6316 25.9375 24.9495 25.8058 25.1839 25.5714C25.4184 25.337 25.55 25.019 25.55 24.6875C25.55 24.356 25.4184 24.038 25.1839 23.8036C24.9495 23.5692 24.6316 23.4375 24.3 23.4375H18.0696C17.7381 23.4375 17.4201 23.5692 17.1857 23.8036C16.9513 24.038 16.8196 24.356 16.8196 24.6875C16.8196 25.019 16.9513 25.337 17.1857 25.5714C17.4201 25.8058 17.7381 25.9375 18.0696 25.9375ZM18.0696 33.5938H32.8246C33.1561 33.5938 33.474 33.4621 33.7085 33.2276C33.9429 32.9932 34.0746 32.6753 34.0746 32.3438C34.0746 32.0122 33.9429 31.6943 33.7085 31.4599C33.474 31.2254 33.1561 31.0938 32.8246 31.0938H18.0696C17.7381 31.0938 17.4201 31.2254 17.1857 31.4599C16.9513 31.6943 16.8196 32.0122 16.8196 32.3438C16.8196 32.6753 16.9513 32.9932 17.1857 33.2276C17.4201 33.4621 17.7381 33.5938 18.0696 33.5938ZM18.0696 41.25H32.8246C33.1561 41.25 33.474 41.1183 33.7085 40.8839C33.9429 40.6495 34.0746 40.3315 34.0746 40C34.0746 39.6685 33.9429 39.3505 33.7085 39.1161C33.474 38.8817 33.1561 38.75 32.8246 38.75H18.0696C17.7381 38.75 17.4201 38.8817 17.1857 39.1161C16.9513 39.3505 16.8196 39.6685 16.8196 40C16.8196 40.3315 16.9513 40.6495 17.1857 40.8839C17.4201 41.1183 17.7381 41.25 18.0696 41.25ZM18.0696 48.9062H32.8246C33.1561 48.9062 33.474 48.7746 33.7085 48.5401C33.9429 48.3057 34.0746 47.9878 34.0746 47.6562C34.0746 47.3247 33.9429 47.0068 33.7085 46.7724C33.474 46.5379 33.1561 46.4062 32.8246 46.4062H18.0696C17.7381 46.4062 17.4201 46.5379 17.1857 46.7724C16.9513 47.0068 16.8196 47.3247 16.8196 47.6562C16.8196 47.9878 16.9513 48.3057 17.1857 48.5401C17.4201 48.7746 17.7381 48.9062 18.0696 48.9062Z" fill="#2A8EFE"/>
<path d="M75.552 20.3125H70.4688V19.1227C70.4711 17.4977 69.8298 15.938 68.6851 14.7847C67.5404 13.6314 65.9855 12.9785 64.3606 12.9688H48.5141C47.7995 12.9739 47.0915 13.1042 46.4219 13.3536L41.2375 15.2472C40.4385 15.5386 39.5625 15.54 38.7625 15.2513L33.5781 13.3516C32.9084 13.1028 32.2003 12.9732 31.4859 12.9688H15.6394C14.0145 12.9785 12.4596 13.6314 11.3149 14.7847C10.1702 15.938 9.52887 17.4977 9.53125 19.1227V20.3125H4.44797C4.10516 20.3177 3.77728 20.4537 3.53137 20.6926C3.28546 20.9315 3.1401 21.2553 3.125 21.5978V65.7486C3.14024 66.0908 3.28573 66.4143 3.53168 66.6527C3.77763 66.8912 4.10543 67.0266 4.44797 67.0312H75.552C75.8946 67.0266 76.2224 66.8912 76.4683 66.6527C76.7143 66.4143 76.8598 66.0908 76.875 65.7486V21.5978C76.8599 21.2553 76.7145 20.9315 76.4686 20.6926C76.2227 20.4537 75.8948 20.3177 75.552 20.3125ZM47.2764 15.7031C47.6721 15.5534 48.091 15.4741 48.5141 15.4688H64.3606C65.3227 15.4777 66.2422 15.867 66.9182 16.5516C67.5942 17.2363 67.9719 18.1605 67.9688 19.1227V53.0191C67.9688 55.0156 66.3575 56.5625 64.3606 56.5625H48.5141C47.7984 56.5755 47.0904 56.7134 46.4222 56.97L41.25 58.8906V17.8437C41.5362 17.7818 41.8176 17.6995 42.092 17.5975L47.2764 15.7031ZM12.0312 19.1227C12.0281 18.1605 12.4058 17.2363 13.0818 16.5516C13.7578 15.867 14.6773 15.4777 15.6394 15.4688H31.4859C31.9089 15.4741 32.3278 15.5534 32.7234 15.7031L37.908 17.5967C38.1824 17.6989 38.4638 17.7815 38.75 17.8437V58.8906L33.5781 56.9708C32.9098 56.7138 32.2018 56.5756 31.4859 56.5625H15.6394C13.6425 56.5625 12.0312 55.0156 12.0312 53.0191V19.1227ZM74.375 64.5312H5.625V22.8125H9.53125V53.0191C9.5322 53.8179 9.69132 54.6086 9.99942 55.3456C10.3075 56.0827 10.7585 56.7514 11.3264 57.3132C11.8942 57.875 12.5677 58.3189 13.308 58.6191C14.0482 58.9194 14.8406 59.07 15.6394 59.0625H31.4859C31.9102 59.0757 32.329 59.1626 32.7234 59.3194L37.9081 61.2244C39.2574 61.7227 40.7394 61.7279 42.092 61.2389L47.2764 59.317C47.671 59.1609 48.0899 59.0748 48.5141 59.0625H64.3606C65.1594 59.07 65.9518 58.9194 66.692 58.6191C67.4323 58.3189 68.1058 57.875 68.6736 57.3132C69.2415 56.7514 69.6925 56.0827 70.0006 55.3456C70.3087 54.6086 70.4678 53.8179 70.4688 53.0191V22.8125H74.375V64.5312Z" fill="#2A8EFE"/>
</svg>
