<svg width="78" height="78" viewBox="0 0 78 78" fill="none" xmlns="http://www.w3.org/2000/svg">
<path d="M45.2178 44.3926C47.6546 43.7831 50.1966 44.0598 52.4326 45.1689L52.875 45.4014L52.876 45.4023C57.9972 48.2465 63.7987 49.75 69.6572 49.75H70.25C73.282 49.75 75.75 52.218 75.75 55.25V58.5273L76.1221 58.7441C76.6509 59.0525 77 59.6118 77 60.25V62.75C77 67.1596 73.4107 70.75 69 70.75H47.3848L47.0498 72.1709C46.8936 72.0928 46.7624 71.9575 46.6924 71.7822C46.6317 71.6304 46.6372 71.4985 46.6436 71.4355C46.6503 71.369 46.6647 71.3189 46.6709 71.2988C46.6779 71.276 46.6841 71.2595 46.6855 71.2559L46.6416 71.373L46.6406 71.3779C45.5933 74.7419 42.5255 77 39 77C35.4746 77 32.4076 74.7424 31.3613 71.3789H31.3604C31.2987 71.1792 31.1829 71.0005 31.0273 70.8838L30.8271 70.7334H30.5771L8.99902 70.749C4.58875 70.7485 1 67.1593 1 62.75V60.25C1 59.6118 1.3491 59.0525 1.87793 58.7441L2.25 58.5273V55.25C2.25 52.218 4.71796 49.75 7.75 49.75H8.34277C14.0184 49.75 19.6406 48.3392 24.6436 45.665L25.125 45.4023L25.126 45.4014C27.3194 44.1817 29.8465 43.7901 32.2939 44.2822L32.7822 44.3926H32.7832C35.0699 44.9643 37.0165 46.2578 38.416 47.9922L39 48.7158L39.584 47.9922C40.896 46.3662 42.6887 45.1273 44.793 44.5078L45.2178 44.3926ZM4.5 62.75C4.5 65.2317 6.51829 67.25 9 67.25H30.6348C32.4779 67.25 34.121 68.4733 34.7021 70.3369V70.3379C35.2899 72.2283 37.0209 73.5 39 73.5C40.8554 73.5 42.4922 72.382 43.1738 70.6846L43.2979 70.3379C43.8774 68.4742 45.5214 67.25 47.3652 67.25H69C71.4817 67.25 73.5 65.2317 73.5 62.75V62H4.5V62.75ZM31.9336 47.7881C30.3106 47.3831 28.6138 47.5662 27.1211 48.3057L26.8262 48.4609C21.1864 51.594 14.794 53.25 8.34277 53.25H7.75C6.64752 53.25 5.75 54.1453 5.75 55.25V58.5H37.25V54.5967C37.25 51.3702 35.0636 48.5691 31.9346 47.7881H31.9336ZM51.1748 48.459C49.7127 47.6463 48.0248 47.3837 46.3916 47.7139L46.0674 47.7871C42.9373 48.5693 40.75 51.37 40.75 54.5967V58.5H72.25V55.25C72.25 54.1453 71.3525 53.25 70.25 53.25H69.6572C63.2073 53.25 56.8155 51.5932 51.1758 48.459H51.1748ZM10.25 9.5C9.14752 9.5 8.25 10.3953 8.25 11.5V34C8.25 35.1047 9.14752 36 10.25 36H11.5C12.3163 36 13.0028 36.5595 13.1953 37.3164L13.4443 38.293L14.3086 37.7744L16.8477 36.249L16.8486 36.25C17.1219 36.0866 17.4341 36 17.75 36H35.25C36.3525 36 37.25 35.1047 37.25 34V11.5C37.25 10.3953 36.3525 9.5 35.25 9.5H10.25ZM41.5 4.5C40.3975 4.5 39.5 5.3953 39.5 6.5V8.03711L39.6484 8.23633C40.3355 9.15948 40.75 10.2799 40.75 11.5V31H59C59.3159 31 59.6281 31.0866 59.9014 31.25V31.249L62.4414 32.7744L63.3057 33.293L63.5547 32.3164C63.7472 31.5595 64.4337 31 65.25 31H66.5C67.6025 31 68.5 30.1047 68.5 29V6.5C68.5 5.3953 67.6025 4.5 66.5 4.5H41.5ZM9.75 39.5107L9.14941 39.3887C6.64262 38.8782 4.75 36.6545 4.75 34V11.5C4.75 8.46796 7.21796 6 10.25 6H35.2197C35.2292 6.00134 35.242 6.00335 35.2549 6.00488C35.2789 6.00773 35.313 6.01054 35.3525 6.01172L35.9854 6.03125L36.1104 5.41113C36.6176 2.89817 38.8425 1 41.5 1H66.5C69.532 1 72 3.46796 72 6.5V29C72 31.6543 70.107 33.8771 67.5996 34.3887L67 34.5117V36.5C67 37.0916 66.7016 37.6399 66.2129 37.9609L66.1123 38.0215L66.1094 38.0234C65.8449 38.1743 65.5475 38.25 65.25 38.25C64.9385 38.25 64.6274 38.1665 64.3496 38H64.3486L58.6934 34.6064L58.5156 34.5H41.5264C41.518 34.499 41.4966 34.4972 41.4736 34.4951C41.4491 34.4929 41.415 34.4902 41.375 34.4902H40.7617L40.6396 35.0908C40.1313 37.6027 37.9064 39.5 35.25 39.5H18.2344L18.0566 39.6064L12.4004 43C12.1226 43.1665 11.8115 43.25 11.5 43.25C11.2387 43.25 10.9793 43.1918 10.7412 43.0762L10.6406 43.0234L10.6377 43.0215L10.5371 42.9609C10.0484 42.6399 9.75 42.0916 9.75 41.5V39.5107Z" fill="#2A8EFE" stroke="white" stroke-width="1.5"/>
<path d="M22.7505 13.5C23.4137 13.5001 24.0143 13.8731 24.3101 14.457L24.3647 14.5762L24.3657 14.5771L30.6157 29.5771C30.9642 30.4126 30.6152 31.3658 29.8345 31.7881L29.6733 31.8652H29.6724C29.4517 31.9575 29.2235 32.001 29.0015 32.001C28.3567 32.001 27.7461 31.6441 27.4419 31.0469L27.3853 30.9238L26.9839 29.9609L26.7915 29.5H18.7085L18.5171 29.9609L18.1157 30.9238C17.7664 31.7614 16.8436 32.1845 15.9976 31.9268L15.8296 31.8662L15.8276 31.8652L15.6655 31.7881C14.9372 31.394 14.5851 30.5379 14.8247 29.7451L14.8853 29.5762L21.1353 14.5762V14.5752C21.4063 13.9244 22.0429 13.5 22.7505 13.5ZM54.0005 8.5C54.9661 8.5002 55.7505 9.28434 55.7505 10.25V12.25H60.2505C61.2161 12.2502 62.0005 13.0343 62.0005 14C62.0005 14.9657 61.2161 15.7498 60.2505 15.75H59.5005V16.5C59.5005 22.2894 54.7887 26.9998 49.0005 27C48.0347 27 47.2505 26.2158 47.2505 25.25C47.2505 24.2842 48.0347 23.5 49.0005 23.5C52.8608 23.4998 56.0005 20.3603 56.0005 16.5V15.75H47.7505C46.7847 15.75 46.0005 14.9658 46.0005 14C46.0005 13.0342 46.7847 12.25 47.7505 12.25H52.2505V10.25C52.2505 9.28421 53.0347 8.5 54.0005 8.5ZM22.0581 21.4619L20.6001 24.9619L20.1675 26H25.3345L24.9009 24.9619L23.4429 21.4619L22.7495 19.7998L22.0581 21.4619Z" fill="#2A8EFE" stroke="white" stroke-width="1.5"/>
</svg>
